<svg width="1200" height="720" viewBox="0 0 1200 720" fill="none" xmlns="http://www.w3.org/2000/svg">
  <rect width="1200" height="720" rx="36" fill="#F8FAFC"/>
  <rect x="54" y="58" width="1092" height="604" rx="30" fill="url(#bg)"/>
  <circle cx="264" cy="218" r="126" fill="#FDE68A" opacity="0.28"/>
  <circle cx="906" cy="470" r="148" fill="#FED7AA" opacity="0.28"/>
  <rect x="176" y="154" width="354" height="392" rx="38" fill="#FFFFFF" opacity="0.95"/>
  <rect x="232" y="206" width="242" height="148" rx="24" fill="#FFF7ED"/>
  <rect x="232" y="388" width="242" height="30" rx="15" fill="#E2E8F0"/>
  <rect x="232" y="438" width="210" height="30" rx="15" fill="#E2E8F0"/>
  <circle cx="352" cy="282" r="42" fill="#F59E0B" opacity="0.88"/>
  <path d="M352 252V284L374 298" stroke="#FFFFFF" stroke-width="12" stroke-linecap="round" stroke-linejoin="round"/>
  <rect x="624" y="170" width="404" height="170" rx="28" fill="#FFFFFF" opacity="0.94"/>
  <text x="664" y="234" fill="#0F172A" font-size="34" font-family="Arial, Helvetica, sans-serif" font-weight="700">Your appointment has changed.</text>
  <text x="664" y="282" fill="#475569" font-size="24" font-family="Arial, Helvetica, sans-serif">Practice clear apology, ownership,</text>
  <text x="664" y="316" fill="#475569" font-size="24" font-family="Arial, Helvetica, sans-serif">and recovery planning.</text>
  <rect x="624" y="392" width="386" height="138" rx="28" fill="#7C2D12"/>
  <text x="664" y="454" fill="#FFFBEB" font-size="24" font-family="Arial, Helvetica, sans-serif">Training focus</text>
  <text x="664" y="502" fill="#FEF3C7" font-size="30" font-family="Arial, Helvetica, sans-serif" font-weight="700">Apologise early. Offer options.</text>
  <defs>
    <linearGradient id="bg" x1="76" y1="76" x2="1086" y2="648" gradientUnits="userSpaceOnUse">
      <stop stop-color="#FFFBEB"/>
      <stop offset="1" stop-color="#FFF7ED"/>
    </linearGradient>
  </defs>
</svg>